<svg version="1.1" id="Layer_1" xmlns="http://www.w3.org/2000/svg" xmlns:xlink="http://www.w3.org/1999/xlink" x="0px" y="0px"
	 width="100%" viewBox="0 0 1088 1088" enable-background="new 0 0 1088 1088" xml:space="preserve">
<path fill="#000000" opacity="1.000000" stroke="none" 
	d="
M728.000000,1089.000000 
	C485.361084,1089.000000 243.222153,1089.000000 1.041614,1089.000000 
	C1.041614,726.402649 1.041614,363.805237 1.041614,1.103935 
	C363.555786,1.103935 726.111633,1.103935 1088.833740,1.103935 
	C1088.833740,363.666595 1088.833740,726.333313 1088.833740,1089.000000 
	C968.804749,1089.000000 848.652405,1089.000000 728.000000,1089.000000 
M590.868164,179.635391 
	C590.899719,173.205093 591.014465,166.773605 590.920837,160.345123 
	C590.884644,157.859146 590.376160,155.380020 590.043152,152.095337 
	C588.219604,143.713791 585.360718,136.188400 578.159912,130.453735 
	C566.915466,121.498703 554.799561,117.869690 540.780396,121.672905 
	C524.779602,126.013710 516.759216,140.305191 516.268860,156.776230 
	C515.879272,169.864655 517.796875,183.039658 518.973083,196.150818 
	C519.822693,205.621048 520.971008,215.072723 522.284790,224.491028 
	C524.022766,236.950256 525.708252,249.435577 528.103149,261.776398 
	C529.283569,267.858948 530.861938,274.438751 534.297241,279.376312 
	C539.618774,287.024994 547.444031,290.320435 557.531738,288.281281 
	C563.622925,287.049988 568.432739,285.249268 572.470337,280.377502 
	C578.570374,273.017151 578.554810,264.037659 579.960144,255.455139 
	C582.231262,241.585678 584.220947,227.666656 586.100220,213.737625 
	C587.611267,202.538422 588.782776,191.293381 590.868164,179.635391 
M439.686310,423.143036 
	C431.908936,423.084412 424.131317,422.973846 416.354431,423.012695 
	C414.868774,423.020111 413.386078,423.616852 411.015961,423.988708 
	C405.154236,424.650665 399.271729,425.166992 393.434509,426.000671 
	C372.348419,429.012207 352.120605,435.058563 332.847046,444.068085 
	C298.891663,459.940643 270.403046,482.655823 247.727798,512.620117 
	C231.646210,533.871338 220.487640,557.511902 212.483551,582.816040 
	C203.608551,610.873535 199.321136,639.750122 197.140121,668.950073 
	C196.296005,680.251038 197.061951,691.667847 196.977997,703.031006 
	C196.814575,725.150818 197.774826,747.175659 203.020264,768.776672 
	C206.282715,782.211670 211.095139,795.191406 220.306442,805.674561 
	C236.363068,823.948303 255.965485,834.562622 281.325623,832.109070 
	C292.800140,830.998840 303.406952,827.805420 312.978180,821.601257 
	C331.505981,809.591309 342.637878,791.850281 348.649414,771.227844 
	C354.050262,752.700317 354.887024,733.355652 354.998566,713.128296 
	C354.944061,702.094727 354.889526,691.061096 354.970367,679.095886 
	C354.648376,672.164368 354.383545,665.229675 353.991302,658.302124 
	C353.375488,647.425537 352.111420,636.552795 352.132904,625.680359 
	C352.170319,606.738525 350.434204,587.696838 355.879364,568.999329 
	C359.296417,557.265808 364.197052,546.333191 372.927216,538.013245 
	C383.199524,528.223755 395.891602,523.515015 410.513916,523.904236 
	C431.861084,524.472351 447.225830,534.333679 457.756836,552.467468 
	C465.401581,565.631348 467.355255,580.298828 467.830780,595.036865 
	C468.279480,608.943848 467.102844,622.895508 467.050568,636.829102 
	C467.016449,645.923706 466.596313,655.237366 468.308319,664.073303 
	C472.205688,684.188721 481.849731,701.150818 497.899719,714.619934 
	C518.393250,731.818176 541.742981,737.990845 567.638062,733.762512 
	C583.849792,731.115417 598.323303,723.499573 610.274902,712.130127 
	C628.619324,694.679077 638.280762,673.186279 637.969482,647.624207 
	C637.807861,634.351807 637.173584,621.084351 637.071167,607.812256 
	C637.018982,601.048401 637.624023,594.276428 638.013550,587.512817 
	C638.743408,574.841553 641.091187,562.655212 647.786743,551.537476 
	C656.944885,536.331055 669.916138,526.028870 687.575256,524.267334 
	C716.302612,521.401733 736.209900,533.700806 746.888550,561.541016 
	C755.050171,582.818970 753.619446,605.129944 752.874207,627.245605 
	C752.386047,641.732361 750.166260,656.187744 750.162231,670.657654 
	C750.155518,694.691833 751.219543,718.729187 751.997986,742.759827 
	C752.627563,762.195557 757.515686,780.554993 768.028381,796.973633 
	C776.566650,810.308716 787.655212,821.109192 802.662537,827.356201 
	C813.799438,831.992065 825.056824,833.897583 837.198730,832.187073 
	C850.847778,830.264160 863.090820,825.191162 873.592651,816.737976 
	C891.148804,802.606506 900.235229,783.000305 903.668762,761.427307 
	C906.813843,741.666199 907.514832,721.499451 908.893555,701.483948 
	C909.299133,695.596436 908.370911,689.613647 908.008362,683.677368 
	C907.364990,673.141785 907.193787,662.545776 905.902161,652.089050 
	C904.042786,637.035767 902.034790,621.940979 898.889893,607.118530 
	C891.547607,572.513672 878.211121,540.388123 856.593323,512.091858 
	C846.032532,498.268494 834.075623,485.599121 820.376709,474.929657 
	C809.802979,466.694275 798.516663,459.184113 786.839539,452.608032 
	C775.009827,445.945984 762.681152,439.772461 749.903442,435.286621 
	C731.950073,428.983795 713.155518,425.571960 693.745300,423.147247 
	C685.294373,423.086121 676.843262,422.987061 668.392578,423.008118 
	C667.232788,423.011017 666.074524,423.610962 664.018616,423.988647 
	C660.589355,424.322968 657.164490,424.888275 653.730164,424.952484 
	C636.880798,425.267609 620.789673,429.106903 605.052124,434.889984 
	C583.906738,442.660339 568.922363,456.710297 560.954651,477.890198 
	C557.754456,486.397034 554.964905,495.058411 552.157043,503.162598 
	C549.303589,486.540894 542.238403,470.907318 531.838867,457.069733 
	C523.925171,446.539825 512.577332,439.763397 500.418518,435.059906 
	C481.074371,427.576813 460.643372,425.231567 439.686310,423.143036 
M542.411499,307.879517 
	C522.260376,311.128601 508.571503,322.788452 499.893524,340.795654 
	C493.460266,354.144958 492.377136,368.251953 495.035065,382.633240 
	C497.990570,398.624573 506.165924,411.626526 519.364380,421.067780 
	C538.987610,435.104980 559.854492,435.742188 580.785645,424.524292 
	C600.894958,413.746887 609.769958,395.442871 611.921997,373.518066 
	C612.928223,363.266235 610.783142,353.342133 606.971191,343.765594 
	C601.330994,329.596130 591.343384,318.997711 578.094421,312.319092 
	C567.370056,306.913116 555.278748,305.660858 542.411499,307.879517 
M641.459534,209.970428 
	C636.352539,218.850708 631.179016,227.693558 626.157654,236.621994 
	C621.306519,245.247589 616.686157,254.003006 611.826782,262.623810 
	C607.684814,269.971741 603.767517,277.052490 604.832642,286.227295 
	C606.879883,303.863129 625.180969,314.463074 640.608215,303.486908 
	C652.226379,295.220886 662.370056,284.772247 672.643921,274.755402 
	C685.136047,262.575775 697.313538,250.049988 709.177124,237.256592 
	C718.168457,227.560486 723.061279,215.990738 720.993164,202.427948 
	C719.568787,193.086166 714.963440,184.925858 707.411377,179.664871 
	C699.883972,174.421036 690.929504,172.250748 681.309509,172.854691 
	C672.835083,173.386688 665.844238,176.725281 660.791626,182.916351 
	C653.953308,191.295563 648.134094,200.506393 641.459534,209.970428 
M403.502625,178.898148 
	C392.001007,185.872696 386.396271,202.907196 389.331818,215.850220 
	C391.942200,227.359512 398.793091,236.274734 406.828247,244.218536 
	C425.943329,263.116516 445.410156,281.659149 464.772583,300.306213 
	C469.922791,305.266144 476.213593,308.584991 483.303619,307.846191 
	C504.166260,305.672089 510.369232,284.410828 501.852112,269.416534 
	C494.393982,256.286621 486.808533,243.225189 479.583557,229.967712 
	C470.177460,212.707932 460.471130,195.665558 446.966217,181.189636 
	C444.650177,178.707062 441.745728,176.123932 438.626251,175.155716 
	C426.778625,171.478455 415.055298,171.710403 403.502625,178.898148 
M764.608643,284.919861 
	C758.231995,280.249695 751.219788,276.713013 743.207886,278.142334 
	C724.765747,281.432465 707.825806,289.177460 690.977661,297.008514 
	C681.503662,301.412048 672.427612,306.819519 662.675110,310.432800 
	C653.744690,313.741516 649.003479,319.769867 647.313416,328.404358 
	C644.825439,341.114685 654.754822,355.186096 667.601135,354.007324 
	C682.159546,352.671448 696.772278,351.771851 711.266296,349.933411 
	C725.645386,348.109650 740.123047,346.236267 754.165100,342.787170 
	C772.332458,338.324799 781.533569,320.966949 776.278503,303.306915 
	C774.128784,296.082855 769.889954,290.609589 764.608643,284.919861 
M342.474670,287.006836 
	C334.729034,295.774445 330.871399,305.624084 332.897827,317.591217 
	C334.976654,329.867798 341.495361,338.151001 353.286774,342.080566 
	C370.668396,347.873169 388.886841,348.816833 406.878052,351.026917 
	C415.498627,352.085938 424.129395,353.440216 432.785156,353.709259 
	C439.236633,353.909790 446.483002,354.170929 452.035614,351.557983 
	C460.069092,347.777588 463.515717,339.517456 462.894287,330.520142 
	C462.281311,321.645569 457.352020,314.964050 449.464630,311.196472 
	C436.582916,305.043121 423.531250,299.202484 410.321136,293.791962 
	C397.616028,288.588287 384.887146,283.064026 371.662262,279.632141 
	C361.700623,277.047119 350.987457,277.738525 342.474670,287.006836 
z"/>
<path fill="#DF6919" opacity="1.000000" stroke="none" 
	d="
M354.846161,714.069214 
	C354.887024,733.355652 354.050262,752.700317 348.649414,771.227844 
	C342.637878,791.850281 331.505981,809.591309 312.978180,821.601257 
	C303.406952,827.805420 292.800140,830.998840 281.325623,832.109070 
	C255.965485,834.562622 236.363068,823.948303 220.306442,805.674561 
	C211.095139,795.191406 206.282715,782.211670 203.020264,768.776672 
	C197.774826,747.175659 196.814575,725.150818 196.977997,703.031006 
	C197.061951,691.667847 196.296005,680.251038 197.140121,668.950073 
	C199.321136,639.750122 203.608551,610.873535 212.483551,582.816040 
	C220.487640,557.511902 231.646210,533.871338 247.727798,512.620117 
	C270.403046,482.655823 298.891663,459.940643 332.847046,444.068085 
	C352.120605,435.058563 372.348419,429.012207 393.434509,426.000671 
	C399.271729,425.166992 405.154236,424.650665 411.929260,424.036438 
	C421.923248,424.034271 431.003876,423.984406 440.084534,423.934509 
	C460.643372,425.231567 481.074371,427.576813 500.418518,435.059906 
	C512.577332,439.763397 523.925171,446.539825 531.838867,457.069733 
	C542.238403,470.907318 549.303589,486.540894 552.157043,503.162598 
	C554.964905,495.058411 557.754456,486.397034 560.954651,477.890198 
	C568.922363,456.710297 583.906738,442.660339 605.052124,434.889984 
	C620.789673,429.106903 636.880798,425.267609 653.730164,424.952484 
	C657.164490,424.888275 660.589355,424.322968 664.936768,424.030884 
	C675.276123,424.036011 684.697449,423.998962 694.118713,423.961884 
	C713.155518,425.571960 731.950073,428.983795 749.903442,435.286621 
	C762.681152,439.772461 775.009827,445.945984 786.839539,452.608032 
	C798.516663,459.184113 809.802979,466.694275 820.376709,474.929657 
	C834.075623,485.599121 846.032532,498.268494 856.593323,512.091858 
	C878.211121,540.388123 891.547607,572.513672 898.889893,607.118530 
	C902.034790,621.940979 904.042786,637.035767 905.902161,652.089050 
	C907.193787,662.545776 907.364990,673.141785 908.008362,683.677368 
	C908.370911,689.613647 909.299133,695.596436 908.893555,701.483948 
	C907.514832,721.499451 906.813843,741.666199 903.668762,761.427307 
	C900.235229,783.000305 891.148804,802.606506 873.592651,816.737976 
	C863.090820,825.191162 850.847778,830.264160 837.198730,832.187073 
	C825.056824,833.897583 813.799438,831.992065 802.662537,827.356201 
	C787.655212,821.109192 776.566650,810.308716 768.028381,796.973633 
	C757.515686,780.554993 752.627563,762.195557 751.997986,742.759827 
	C751.219543,718.729187 750.155518,694.691833 750.162231,670.657654 
	C750.166260,656.187744 752.386047,641.732361 752.874207,627.245605 
	C753.619446,605.129944 755.050171,582.818970 746.888550,561.541016 
	C736.209900,533.700806 716.302612,521.401733 687.575256,524.267334 
	C669.916138,526.028870 656.944885,536.331055 647.786743,551.537476 
	C641.091187,562.655212 638.743408,574.841553 638.013550,587.512817 
	C637.624023,594.276428 637.018982,601.048401 637.071167,607.812256 
	C637.173584,621.084351 637.807861,634.351807 637.969482,647.624207 
	C638.280762,673.186279 628.619324,694.679077 610.274902,712.130127 
	C598.323303,723.499573 583.849792,731.115417 567.638062,733.762512 
	C541.742981,737.990845 518.393250,731.818176 497.899719,714.619934 
	C481.849731,701.150818 472.205688,684.188721 468.308319,664.073303 
	C466.596313,655.237366 467.016449,645.923706 467.050568,636.829102 
	C467.102844,622.895508 468.279480,608.943848 467.830780,595.036865 
	C467.355255,580.298828 465.401581,565.631348 457.756836,552.467468 
	C447.225830,534.333679 431.861084,524.472351 410.513916,523.904236 
	C395.891602,523.515015 383.199524,528.223755 372.927216,538.013245 
	C364.197052,546.333191 359.296417,557.265808 355.879364,568.999329 
	C350.434204,587.696838 352.170319,606.738525 352.132904,625.680359 
	C352.111420,636.552795 353.375488,647.425537 353.991302,658.302124 
	C354.383545,665.229675 354.648376,672.164368 354.707825,679.923584 
	C354.298218,686.158142 353.981415,691.567078 354.050720,696.971069 
	C354.123901,702.672913 354.565491,708.370056 354.846161,714.069214 
z"/>
<path fill="#DF691A" opacity="1.000000" stroke="none" 
	d="
M542.780579,307.622314 
	C555.278748,305.660858 567.370056,306.913116 578.094421,312.319092 
	C591.343384,318.997711 601.330994,329.596130 606.971191,343.765594 
	C610.783142,353.342133 612.928223,363.266235 611.921997,373.518066 
	C609.769958,395.442871 600.894958,413.746887 580.785645,424.524292 
	C559.854492,435.742188 538.987610,435.104980 519.364380,421.067780 
	C506.165924,411.626526 497.990570,398.624573 495.035065,382.633240 
	C492.377136,368.251953 493.460266,354.144958 499.893524,340.795654 
	C508.571503,322.788452 522.260376,311.128601 542.780579,307.622314 
z"/>
<path fill="#DF691A" opacity="1.000000" stroke="none" 
	d="
M590.104858,180.068680 
	C588.782776,191.293381 587.611267,202.538422 586.100220,213.737625 
	C584.220947,227.666656 582.231262,241.585678 579.960144,255.455139 
	C578.554810,264.037659 578.570374,273.017151 572.470337,280.377502 
	C568.432739,285.249268 563.622925,287.049988 557.531738,288.281281 
	C547.444031,290.320435 539.618774,287.024994 534.297241,279.376312 
	C530.861938,274.438751 529.283569,267.858948 528.103149,261.776398 
	C525.708252,249.435577 524.022766,236.950256 522.284790,224.491028 
	C520.971008,215.072723 519.822693,205.621048 518.973083,196.150818 
	C517.796875,183.039658 515.879272,169.864655 516.268860,156.776230 
	C516.759216,140.305191 524.779602,126.013710 540.780396,121.672905 
	C554.799561,117.869690 566.915466,121.498703 578.159912,130.453735 
	C585.360718,136.188400 588.219604,143.713791 589.994751,152.967499 
	C589.999146,162.582672 590.052002,171.325684 590.104858,180.068680 
z"/>
<path fill="#DF6A1A" opacity="1.000000" stroke="none" 
	d="
M641.668579,209.665436 
	C648.134094,200.506393 653.953308,191.295563 660.791626,182.916351 
	C665.844238,176.725281 672.835083,173.386688 681.309509,172.854691 
	C690.929504,172.250748 699.883972,174.421036 707.411377,179.664871 
	C714.963440,184.925858 719.568787,193.086166 720.993164,202.427948 
	C723.061279,215.990738 718.168457,227.560486 709.177124,237.256592 
	C697.313538,250.049988 685.136047,262.575775 672.643921,274.755402 
	C662.370056,284.772247 652.226379,295.220886 640.608215,303.486908 
	C625.180969,314.463074 606.879883,303.863129 604.832642,286.227295 
	C603.767517,277.052490 607.684814,269.971741 611.826782,262.623810 
	C616.686157,254.003006 621.306519,245.247589 626.157654,236.621994 
	C631.179016,227.693558 636.352539,218.850708 641.668579,209.665436 
z"/>
<path fill="#DF6A1A" opacity="1.000000" stroke="none" 
	d="
M403.788574,178.663269 
	C415.055298,171.710403 426.778625,171.478455 438.626251,175.155716 
	C441.745728,176.123932 444.650177,178.707062 446.966217,181.189636 
	C460.471130,195.665558 470.177460,212.707932 479.583557,229.967712 
	C486.808533,243.225189 494.393982,256.286621 501.852112,269.416534 
	C510.369232,284.410828 504.166260,305.672089 483.303619,307.846191 
	C476.213593,308.584991 469.922791,305.266144 464.772583,300.306213 
	C445.410156,281.659149 425.943329,263.116516 406.828247,244.218536 
	C398.793091,236.274734 391.942200,227.359512 389.331818,215.850220 
	C386.396271,202.907196 392.001007,185.872696 403.788574,178.663269 
z"/>
<path fill="#DF6A1A" opacity="1.000000" stroke="none" 
	d="
M764.967651,285.006592 
	C769.889954,290.609589 774.128784,296.082855 776.278503,303.306915 
	C781.533569,320.966949 772.332458,338.324799 754.165100,342.787170 
	C740.123047,346.236267 725.645386,348.109650 711.266296,349.933411 
	C696.772278,351.771851 682.159546,352.671448 667.601135,354.007324 
	C654.754822,355.186096 644.825439,341.114685 647.313416,328.404358 
	C649.003479,319.769867 653.744690,313.741516 662.675110,310.432800 
	C672.427612,306.819519 681.503662,301.412048 690.977661,297.008514 
	C707.825806,289.177460 724.765747,281.432465 743.207886,278.142334 
	C751.219788,276.713013 758.231995,280.249695 764.967651,285.006592 
z"/>
<path fill="#DF6A1A" opacity="1.000000" stroke="none" 
	d="
M342.736359,286.754333 
	C350.987457,277.738525 361.700623,277.047119 371.662262,279.632141 
	C384.887146,283.064026 397.616028,288.588287 410.321136,293.791962 
	C423.531250,299.202484 436.582916,305.043121 449.464630,311.196472 
	C457.352020,314.964050 462.281311,321.645569 462.894287,330.520142 
	C463.515717,339.517456 460.069092,347.777588 452.035614,351.557983 
	C446.483002,354.170929 439.236633,353.909790 432.785156,353.709259 
	C424.129395,353.440216 415.498627,352.085938 406.878052,351.026917 
	C388.886841,348.816833 370.668396,347.873169 353.286774,342.080566 
	C341.495361,338.151001 334.976654,329.867798 332.897827,317.591217 
	C330.871399,305.624084 334.729034,295.774445 342.736359,286.754333 
z"/>
<path fill="#E78E52" opacity="1.000000" stroke="none" 
	d="
M354.922363,713.598755 
	C354.565491,708.370056 354.123901,702.672913 354.050720,696.971069 
	C353.981415,691.567078 354.298218,686.158142 354.640137,680.389404 
	C354.889526,691.061096 354.944061,702.094727 354.922363,713.598755 
z"/>
<path fill="#F3C5A6" opacity="1.000000" stroke="none" 
	d="
M693.932007,423.554565 
	C684.697449,423.998962 675.276123,424.036011 665.385193,424.003784 
	C666.074524,423.610962 667.232788,423.011017 668.392578,423.008118 
	C676.843262,422.987061 685.294373,423.086121 693.932007,423.554565 
z"/>
<path fill="#F3C5A6" opacity="1.000000" stroke="none" 
	d="
M439.885437,423.538757 
	C431.003876,423.984406 421.923248,424.034271 412.372314,424.012939 
	C413.386078,423.616852 414.868774,423.020111 416.354431,423.012695 
	C424.131317,422.973846 431.908936,423.084412 439.885437,423.538757 
z"/>
<path fill="#F3C5A6" opacity="1.000000" stroke="none" 
	d="
M590.486572,179.852036 
	C590.052002,171.325684 589.999146,162.582672 590.014526,153.368729 
	C590.376160,155.380020 590.884644,157.859146 590.920837,160.345123 
	C591.014465,166.773605 590.899719,173.205093 590.486572,179.852036 
z"/>
</svg>